<svg xmlns="http://www.w3.org/2000/svg" viewBox="0 0 1280 52" width="1280" height="52" role="img" aria-label="stack.exe">
<defs><linearGradient id="d" x1="0" x2="1"><stop offset="0" stop-color="#ff77a8"/><stop offset=".55" stop-color="#b8a4ff"/><stop offset="1" stop-color="#39c5bb"/></linearGradient></defs>
<rect x="6" y="8" width="1268" height="38" fill="#000" fill-opacity=".35"/>
<rect x="2" y="4" width="1268" height="38" fill="url(#d)" stroke="#2b1d3a" stroke-width="3"/>
<path d="M18.5,16.0h2.5v2.5h-2.5zM21.0,16.0h2.5v2.5h-2.5zM26.0,16.0h2.5v2.5h-2.5zM28.5,16.0h2.5v2.5h-2.5zM16.0,18.5h2.5v2.5h-2.5zM18.5,18.5h2.5v2.5h-2.5zM21.0,18.5h2.5v2.5h-2.5zM23.5,18.5h2.5v2.5h-2.5zM26.0,18.5h2.5v2.5h-2.5zM28.5,18.5h2.5v2.5h-2.5zM31.0,18.5h2.5v2.5h-2.5zM16.0,21.0h2.5v2.5h-2.5zM18.5,21.0h2.5v2.5h-2.5zM21.0,21.0h2.5v2.5h-2.5zM23.5,21.0h2.5v2.5h-2.5zM26.0,21.0h2.5v2.5h-2.5zM28.5,21.0h2.5v2.5h-2.5zM31.0,21.0h2.5v2.5h-2.5zM18.5,23.5h2.5v2.5h-2.5zM21.0,23.5h2.5v2.5h-2.5zM23.5,23.5h2.5v2.5h-2.5zM26.0,23.5h2.5v2.5h-2.5zM28.5,23.5h2.5v2.5h-2.5zM21.0,26.0h2.5v2.5h-2.5zM23.5,26.0h2.5v2.5h-2.5zM26.0,26.0h2.5v2.5h-2.5zM23.5,28.5h2.5v2.5h-2.5z" fill="#2b1d3a" />
<path d="M46.532 27.789H47.938V30.126H53.6V26.82H47.729V25.642H46.532V21.918H47.729V20.740000000000002H53.79V21.918H54.968V24.464H53.6V22.108H47.938V25.433H53.79V26.611H54.968V30.335H53.79V31.532H47.729V30.335H46.532ZM58.996 22.108H56.621V20.740000000000002H58.996V17.206H60.364V20.740000000000002H63.879V22.108H60.364V30.126H63.879V31.532H60.155V30.335H58.996ZM65.532 26.611H66.729V25.433H71.422V22.108H66.938V24.464H65.532V21.918H66.729V20.740000000000002H71.631V21.918H72.79V30.126H73.968V31.532H72.6V30.335H70.453V31.532H66.729V30.335H65.532ZM70.244 30.126V28.967H71.422V26.82H66.938V30.126ZM76.229 29.157H75.032V23.076999999999998H76.229V21.918H77.407V20.740000000000002H81.131V21.918H82.29V23.076999999999998H83.468V24.464H82.1V23.286H80.922V22.108H77.597V23.286H76.438V28.967H77.597V30.126H80.922V28.967H82.1V27.789H83.468V29.157H82.29V30.335H81.131V31.532H77.407V30.335H76.229ZM84.532 17.206H85.938V25.433H86.907V24.255H88.066V23.076999999999998H90.422V21.918H91.6V20.740000000000002H92.968V22.108H91.79V23.286H90.631V24.464H88.275V25.642H87.097V26.611H88.275V27.789H90.631V28.967H91.79V30.126H92.968V31.532H91.6V30.335H90.422V29.157H88.066V27.979H86.907V26.82H85.938V31.532H84.532ZM94.697 27.789H97.243V30.335H94.697ZM104.729 29.157H103.532V23.076999999999998H104.729V21.918H105.907V20.740000000000002H109.631V21.918H110.79V23.076999999999998H111.968V26.82H104.938V28.967H106.097V30.126H109.422V28.967H110.6V27.789H111.968V29.157H110.79V30.335H109.631V31.532H105.907V30.335H104.729ZM110.6 25.433V23.286H109.422V22.108H106.097V23.286H104.938V25.433ZM113.032 30.126H114.229V27.789H115.407V26.611H116.566V25.642H115.407V24.464H114.229V22.108H113.032V20.740000000000002H114.438V21.918H115.597V24.255H116.775V25.433H117.744V24.255H118.922V21.918H120.1V20.740000000000002H121.468V22.108H120.29V24.464H119.131V25.642H117.953V26.611H119.131V27.789H120.29V30.126H121.468V31.532H120.1V30.335H118.922V27.979H117.744V26.82H116.775V27.979H115.597V30.335H114.438V31.532H113.032ZM123.729 29.157H122.532V23.076999999999998H123.729V21.918H124.907V20.740000000000002H128.631V21.918H129.79V23.076999999999998H130.968V26.82H123.938V28.967H125.097V30.126H128.422V28.967H129.6V27.789H130.968V29.157H129.79V30.335H128.631V31.532H124.907V30.335H123.729ZM129.6 25.433V23.286H128.422V22.108H125.097V23.286H123.938V25.433Z" fill="#2b1d3a" />
<rect x="1176" y="11" width="22" height="22" fill="#fbf6ff" stroke="#2b1d3a" stroke-width="2"/><rect x="1206" y="11" width="22" height="22" fill="#fbf6ff" stroke="#2b1d3a" stroke-width="2"/><rect x="1236" y="11" width="22" height="22" fill="#fbf6ff" stroke="#2b1d3a" stroke-width="2"/>
<rect x="1181" y="26" width="12" height="3" fill="#2b1d3a"/>
<rect x="1211" y="16" width="12" height="11" fill="none" stroke="#2b1d3a" stroke-width="2"/>
<path d="M1243.226 28.218H1244.297V26.127H1245.351V25.073H1246.388V24.206H1245.351V23.152H1244.297V21.044H1243.226V19.82H1244.484V20.874H1245.521V22.965H1246.575V24.019H1247.442V22.965H1248.496V20.874H1249.55V19.82H1250.774V21.044H1249.72V23.152H1248.683V24.206H1247.629V25.073H1248.683V26.127H1249.72V28.218H1250.774V29.476H1249.55V28.405H1248.496V26.297H1247.442V25.259999999999998H1246.575V26.297H1245.521V28.405H1244.484V29.476H1243.226Z" fill="#2b1d3a" />
</svg>